# xmcd
#
# Track frame offsets: 
#        150
#        16086
#        29799
#        46788
#        66746
#        74302
#        91374
#        106875
#        126054
#        145943
#        163861
#
# Disc length: 2412 seconds
#
# Revision: 0
# Processed by: cddbd v1.5.2PL0 Copyright (c) Steve Scherf et al.
# Submitted via: ExactAudioCopy v0.99pb5
#
DISCID=9b096a0b
DTITLE=Marshall Monrad Band - Minerals and Mud
DYEAR=1900
DGENRE=Country
TTITLE0=Get Off Of This Train
TTITLE1=Coal Mine Town
TTITLE2=Railroad Line
TTITLE3=Miners Blues
TTITLE4=Hills
TTITLE5=Long Journey Home
TTITLE6=Guess She Just Forgot
TTITLE7=Belle Of The Backstreets
TTITLE8=Highways and Backroads
TTITLE9=Dunderland Iron Core Company
TTITLE10=We Shall Meet Someday
EXTD=
EXTT0=
EXTT1=
EXTT2=
EXTT3=
EXTT4=
EXTT5=
EXTT6=
EXTT7=
EXTT8=
EXTT9=
EXTT10=
PLAYORDER=
